<svg xmlns="http://www.w3.org/2000/svg" width="23.095" height="23.095" viewBox="0 0 23.095 23.095"><path d="M0,0H23.1V23.1H0Z" fill="none"/><g transform="translate(0.962 5.175)"><path d="M16.974,9.325l1.771-3.06A.606.606,0,0,0,17.7,5.659L15.887,8.777a11.03,11.03,0,0,0-8.6,0L5.475,5.659a.606.606,0,0,0-1.049.606L6.2,9.325a10.374,10.374,0,0,0-5.2,8.2H22.171A10.374,10.374,0,0,0,16.974,9.325Zm-10.2,5.553a1.2,1.2,0,1,1,1.2-1.2A1.2,1.2,0,0,1,6.774,14.878Zm9.623,0a1.2,1.2,0,1,1,1.2-1.2A1.2,1.2,0,0,1,16.4,14.878Z" transform="translate(-1 -5.377)" fill="#fff"/></g></svg>