<svg xmlns="http://www.w3.org/2000/svg" width="15.738" height="18.291" viewBox="0 0 15.738 18.291"><g transform="translate(0 4.342)"><path d="M44.811,113.468a4.261,4.261,0,0,1-.35-1.7,4.2,4.2,0,0,1,.066-.747,3.8,3.8,0,0,1,1.527-2.449,3.849,3.849,0,0,1,.437-.266,4.168,4.168,0,0,0-3.3-1.856c-1.17-.122-2.82.913-3.715.913h-.024c-.9,0-2.545-1.035-3.715-.913a4.837,4.837,0,0,0-3.567,2.179,5.741,5.741,0,0,0-.823,2.42,8.81,8.81,0,0,0-.061,1.178,9.562,9.562,0,0,0,.1,1.249,10.52,10.52,0,0,0,.668,2.445,11.12,11.12,0,0,0,1.216,2.223c1,1.414,2.129,2.23,2.767,2.244,1.31.029,2.448-.857,3.388-.834a.079.079,0,0,0,.029,0h.024a.07.07,0,0,0,.028,0c.94-.024,2.079.863,3.392.833.636-.015,1.768-.831,2.766-2.245a10.988,10.988,0,0,0,1.213-2.225c.051-.125.1-.251.147-.38A3.644,3.644,0,0,1,44.811,113.468Z" transform="translate(-31.286 -106.44)" fill="#fff"/></g><g transform="translate(7.648)"><path d="M221.586,2.994a4.044,4.044,0,0,0,.876-2.983,4.348,4.348,0,0,0-2.785,1.38,3.9,3.9,0,0,0-.876,2.983A4.1,4.1,0,0,0,221.586,2.994Z" transform="translate(-218.754 0)" fill="#fff"/></g></svg>