<svg xmlns="http://www.w3.org/2000/svg" width="22.956" height="28.695" viewBox="0 0 22.956 28.695"><g transform="translate(-4 -2)"><path d="M26.956,12.043,16.913,2H8.3A4.3,4.3,0,0,0,4,6.3V26.391a4.3,4.3,0,0,0,4.3,4.3H22.652a4.3,4.3,0,0,0,4.3-4.3Z" fill="#fff" opacity="0.5"/><path d="M23.913,12.043H16.739a2.87,2.87,0,0,1-2.87-2.87V2ZM12.435,24.957A1.434,1.434,0,0,1,11,23.522V16.348a1.435,1.435,0,1,1,2.87,0v7.174a1.434,1.434,0,0,1-1.435,1.435Z" transform="translate(3.043)" fill="#fff"/><path d="M13.3,19.739a1.43,1.43,0,0,1-1.014-.42l-2.87-2.87a1.435,1.435,0,1,1,2.029-2.029L13.3,16.276l1.855-1.855a1.435,1.435,0,1,1,2.029,2.029l-2.87,2.87a1.43,1.43,0,0,1-1.014.42Z" transform="translate(2.174 5.217)" fill="#fff"/></g></svg>