<svg xmlns="http://www.w3.org/2000/svg" width="13.913" height="13.913" viewBox="0 0 13.913 13.913">
  <g id="facebook" transform="translate(0)">
    <path id="Path_341" data-name="Path 341" d="M15.215,2H2.694a.7.7,0,0,0-.7.7V15.217a.7.7,0,0,0,.7.7H15.215a.7.7,0,0,0,.7-.7V2.7A.7.7,0,0,0,15.215,2ZM13.751,6.062H12.639c-.872,0-1.041.414-1.041,1.022v1.34h2.079l-.271,2.1H11.6v5.387H9.43V10.525H7.617v-2.1H9.43V6.877a2.53,2.53,0,0,1,2.7-2.775,14.865,14.865,0,0,1,1.62.083Z" transform="translate(-1.998 -2)" fill="#fff"/>
  </g>
</svg>
