<svg xmlns="http://www.w3.org/2000/svg" width="28.151" height="28.151" viewBox="0 0 28.151 28.151"><path d="M13.745,28.923v-10.9H10.076V13.773h3.668V10.64a5.119,5.119,0,0,1,5.464-5.616,30.089,30.089,0,0,1,3.278.167v3.8h-2.25c-1.764,0-2.105.838-2.105,2.068v2.712h4.207l-.548,4.248H18.132v10.9Z" transform="translate(1.294 -0.773)" fill="#fff" opacity="0.1"/><path d="M28.742,2H3.405A1.407,1.407,0,0,0,2,3.407V28.743a1.407,1.407,0,0,0,1.407,1.407H28.742a1.407,1.407,0,0,0,1.407-1.407V3.407A1.408,1.408,0,0,0,28.742,2Zm-2.963,8.219h-2.25c-1.764,0-2.105.838-2.105,2.068V15H25.63l-.548,4.248H21.424v10.9H17.036v-10.9H13.368V15h3.668V11.867A5.119,5.119,0,0,1,22.5,6.251a30.078,30.078,0,0,1,3.278.168Z" transform="translate(-1.998 -2)" fill="#1878f2"/></svg>