<svg xmlns="http://www.w3.org/2000/svg" width="26.551" height="27.091" viewBox="0 0 26.551 27.091"><g transform="translate(-2.222 -1.999)"><path d="M15.388,7.387a7.316,7.316,0,0,1,5.177,2.025l3.884-3.884A13.015,13.015,0,0,0,15.388,2a13.538,13.538,0,0,0-12.1,7.461L7.81,12.97A8.071,8.071,0,0,1,15.388,7.387Z" transform="translate(0.377 0)" fill="#fff" opacity="0.9"/><path d="M3.662,7.509a13.56,13.56,0,0,0,0,12.164l4.524-3.509a8.007,8.007,0,0,1,0-5.146Z" transform="translate(0 1.952)" fill="#fff" opacity="0.8"/><path d="M19.974,18.191A8.17,8.17,0,0,1,7.81,13.9L3.285,17.409a13.537,13.537,0,0,0,12.1,7.461,12.93,12.93,0,0,0,8.963-3.281Z" transform="translate(0.377 4.216)" fill="#fff" opacity="0.7"/><path d="M24.977,10.182H12.222V15.42H19.51a6.23,6.23,0,0,1-2.7,4.087l-.013.008.013-.008,4.377,3.4h0a13.208,13.208,0,0,0,4.038-9.954A15.562,15.562,0,0,0,24.977,10.182Z" transform="translate(3.543 2.899)" fill="#fff" opacity="0.5"/></g></svg>