<svg xmlns="http://www.w3.org/2000/svg" width="15.022" height="13.722" viewBox="0 0 15.022 13.722">
  <g id="telegram-alt" transform="translate(-1 -1.649)">
    <path id="Path_342" data-name="Path 342" d="M12.4,15.372a1.379,1.379,0,0,1-.847-.291L8.8,12.948,6.95,14.985a.683.683,0,0,1-1.16-.261l-1.38-4.563L1.936,9.3a1.394,1.394,0,0,1-.071-2.607L14.1,1.752a1.395,1.395,0,0,1,1.893,1.567L13.767,14.257A1.4,1.4,0,0,1,12.4,15.372Z" transform="translate(0 0)" fill="#fff"/>
    <path id="Path_343" data-name="Path 343" d="M7.806,17.857a.656.656,0,0,1-.6-.533L5.832,11.946a.811.811,0,0,1,.313-.884L12.82,6.93a.571.571,0,0,1,.8.222.859.859,0,0,1-.063.975l-4.474,5.32-.659,3.81a.676.676,0,0,1-.59.6Z" transform="translate(-1.196 -2.664)" fill="#1f4173" opacity="0.2"/>
  </g>
</svg>
