<svg xmlns="http://www.w3.org/2000/svg" width="28.15" height="25.714" viewBox="0 0 28.15 25.714"><path d="M22.354,27.363a2.583,2.583,0,0,1-1.588-.546l-5.158-4-3.458,3.816a1.28,1.28,0,0,1-2.173-.49L7.392,17.6,2.753,15.985A2.613,2.613,0,0,1,2.621,11.1L25.552,1.842A2.614,2.614,0,0,1,29.1,4.779l-4.175,20.5a2.629,2.629,0,0,1-2.569,2.089Z" transform="translate(-1 -1.649)" fill="#029be5"/><path d="M9.555,27.48a1.229,1.229,0,0,1-1.133-1L5.856,16.4a1.52,1.52,0,0,1,.586-1.656L18.95,7a1.071,1.071,0,0,1,1.5.415,1.61,1.61,0,0,1-.118,1.828L11.95,19.217l-1.236,7.139a1.267,1.267,0,0,1-1.105,1.123Z" transform="translate(0.958 -2.102)" fill="#1f4173" opacity="0.205"/></svg>