<svg xmlns="http://www.w3.org/2000/svg" width="15.889" height="12.913" viewBox="0 0 15.889 12.913">
  <path id="Brand_Logos" data-name="Brand Logos" d="M17.889,5.4a6.508,6.508,0,0,1-1.872.513,3.269,3.269,0,0,0,1.433-1.8,6.512,6.512,0,0,1-2.07.791A3.261,3.261,0,0,0,9.741,7.132a3.3,3.3,0,0,0,.084.743A9.255,9.255,0,0,1,3.107,4.47,3.263,3.263,0,0,0,4.116,8.821a3.245,3.245,0,0,1-1.477-.407v.041a3.261,3.261,0,0,0,2.614,3.2,3.243,3.243,0,0,1-.858.114,3.309,3.309,0,0,1-.614-.057,3.263,3.263,0,0,0,3.044,2.263A6.563,6.563,0,0,1,2,15.32a9.224,9.224,0,0,0,5,1.465A9.211,9.211,0,0,0,16.27,7.512q0-.212-.01-.422A6.641,6.641,0,0,0,17.889,5.4Z" transform="translate(-2 -3.873)" fill="#fff"/>
</svg>
