<svg xmlns="http://www.w3.org/2000/svg" width="28.15" height="22.877" viewBox="0 0 28.15 22.877"><path d="M30.15,6.58a11.53,11.53,0,0,1-3.317.91,5.792,5.792,0,0,0,2.539-3.195A11.537,11.537,0,0,1,25.7,5.7a5.777,5.777,0,0,0-9.989,3.952,5.841,5.841,0,0,0,.149,1.316,16.4,16.4,0,0,1-11.9-6.033A5.78,5.78,0,0,0,5.748,12.64a5.748,5.748,0,0,1-2.616-.722v.073a5.777,5.777,0,0,0,4.631,5.662,5.745,5.745,0,0,1-1.521.2,5.862,5.862,0,0,1-1.087-.1,5.782,5.782,0,0,0,5.394,4.01A11.628,11.628,0,0,1,2,24.154a16.342,16.342,0,0,0,8.852,2.6,16.318,16.318,0,0,0,16.43-16.43q0-.376-.018-.747A11.766,11.766,0,0,0,30.15,6.58Z" transform="translate(-2 -3.873)" fill="#029be5"/></svg>