<svg xmlns="http://www.w3.org/2000/svg" width="24.999" height="25.149" viewBox="0 0 24.999 25.149"><g transform="translate(-2.059 -2)"><path d="M13.545,17.089a7.545,7.545,0,1,1,7.545-7.545A7.545,7.545,0,0,1,13.545,17.089Z" transform="translate(1.014)" fill="#fff"/><path d="M19.212,12.713a7.509,7.509,0,0,1-9.312,0A12.564,12.564,0,0,0,2.067,23a1.258,1.258,0,0,0,1.114,1.386l22.619.007a1.305,1.305,0,0,0,.138-.007A1.258,1.258,0,0,0,27.051,23,12.568,12.568,0,0,0,19.212,12.713Z" transform="translate(0 2.758)" fill="#fff" opacity="0.5"/></g></svg>