<svg xmlns="http://www.w3.org/2000/svg" width="14.532" height="14.499" viewBox="0 0 14.532 14.499"><g transform="translate(6.514)"><path d="M214.824,7.46a.7.7,0,0,0,.687-.682V1.1a.569.569,0,0,0-.669-.569l-6.715.982a.774.774,0,0,0-.633.761V6.778a.633.633,0,0,0,.6.682Z" transform="translate(-207.493 -0.52)" fill="#fff"/></g><g transform="translate(0 1.258)"><path d="M6.013,41.155a.612.612,0,0,0-.721-.57l-4.584.66A.845.845,0,0,0,0,42.008v3.571a.714.714,0,0,0,.7.682H5.221a.8.8,0,0,0,.792-.682V41.155Z" transform="translate(0 -40.578)" fill="#fff"/></g><g transform="translate(0 7.441)"><path d="M.7,237.516a.745.745,0,0,0-.7.716v3.632a.815.815,0,0,0,.676.763l4.606.67a.621.621,0,0,0,.731-.57v-4.5a.831.831,0,0,0-.792-.716Z" transform="translate(0 -237.516)" fill="#fff"/></g><g transform="translate(6.514 7.441)"><path d="M207.492,242.812a.77.77,0,0,0,.628.762l6.735.994a.556.556,0,0,0,.654-.568v-5.768a.731.731,0,0,0-.687-.716H208.1a.665.665,0,0,0-.6.716Z" transform="translate(-207.492 -237.516)" fill="#fff"/></g></svg>