<svg xmlns="http://www.w3.org/2000/svg" width="15.339" height="10.781" viewBox="0 0 15.339 10.781">
  <g id="youtube" transform="translate(0)">
    <path id="Path_345" data-name="Path 345" d="M16.322,8.065a5.954,5.954,0,0,0-.637-2.879,2,2,0,0,0-1.2-.709,56.529,56.529,0,0,0-5.813-.2,56.43,56.43,0,0,0-5.813.2,2.046,2.046,0,0,0-1.022.517,3.748,3.748,0,0,0-.763,2.4,33.135,33.135,0,0,0,0,4.52,6.216,6.216,0,0,0,.21,1.395,2.189,2.189,0,0,0,.493.95,1.992,1.992,0,0,0,1.04.541,31.16,31.16,0,0,0,4.532.229h0c2.436.039,4.583,0,7.111-.192a2.016,2.016,0,0,0,1.07-.547,1.746,1.746,0,0,0,.421-.673,7.283,7.283,0,0,0,.367-2.368C16.346,10.836,16.346,8.48,16.322,8.065ZM11.225,9.5h0c-.578.32-1.246.66-1.951,1.017s-1.452.736-2.176,1.13V7.331h0L9.149,8.4c.684.358,1.371.72,2.073,1.095l.009,0Z" transform="translate(-1.001 -4.264)" fill="#fff"/>
  </g>
</svg>
