<svg xmlns="http://www.w3.org/2000/svg" width="30.963" height="21.761" viewBox="0 0 30.963 21.761"><path d="M18.077,13.043c-2.839-1.517-5.557-2.924-8.336-4.38v8.712c2.924-1.59,6.007-3.046,8.348-4.344Z" transform="translate(2.561 -2.471)" fill="#fff" opacity="0.1"/><path d="M31.927,11.936a12.018,12.018,0,0,0-1.286-5.812,4.036,4.036,0,0,0-2.414-1.432,114.106,114.106,0,0,0-11.734-.412A113.905,113.905,0,0,0,4.76,4.692,4.131,4.131,0,0,0,2.7,5.735C1.438,6.9,1.346,8.9,1.157,10.589a66.883,66.883,0,0,0,0,9.125,12.546,12.546,0,0,0,.425,2.815,4.418,4.418,0,0,0,.995,1.918,4.021,4.021,0,0,0,2.1,1.091A62.9,62.9,0,0,0,13.824,26h0c4.918.079,9.251,0,14.354-.388a4.07,4.07,0,0,0,2.16-1.1,3.523,3.523,0,0,0,.85-1.359,14.7,14.7,0,0,0,.74-4.78C31.976,17.529,31.976,12.773,31.927,11.936Zm-10.289,2.9-.005,0c-1.167.646-2.516,1.332-3.938,2.054s-2.93,1.486-4.392,2.281V10.455h0c1.389.728,2.764,1.444,4.145,2.167s2.768,1.452,4.185,2.21l.017-.009Z" transform="translate(-1.001 -4.264)" fill="#ea3d3d"/></svg>